<?xml version="1.0" encoding="utf-8"?>
<!-- Generator: Adobe Illustrator 21.0.0, SVG Export Plug-In . SVG Version: 6.00 Build 0)  -->
<svg version="1.1" id="Layer_1" xmlns="http://www.w3.org/2000/svg" xmlns:xlink="http://www.w3.org/1999/xlink" x="0px" y="0px"
	 viewBox="0 0 184.2 210.2" style="enable-background:new 0 0 184.2 210.2;" xml:space="preserve">
<style type="text/css">
	.st0{fill:#FFFFFF;}
</style>
<g>
	<polygon class="st0" points="92.1,73.6 56.9,93.7 69,100.6 104.2,80.6 	"/>
	<path class="st0" d="M180.2,49.6L96.1,1.1c-2.5-1.4-5.5-1.4-8,0L4,49.6c-2.5,1.4-4,4.1-4,6.9v97.1c0,2.9,1.5,5.5,4,6.9l84.1,48.6
		c2.5,1.4,5.5,1.4,8,0l84.1-48.6c2.5-1.4,4-4.1,4-6.9V56.6C184.2,53.7,182.7,51.1,180.2,49.6z M147.2,121.5l-53.1,30.3
		c-0.6,0.3-1.3,0.5-2.1,0.5c-0.7,0-1.5-0.2-2.1-0.5l-53.1-30.3c-1.1-0.6-1.1-1.7,0-2.4l6.9-3.9c1.1-0.6,3-0.6,4.1,0l44.2,25.2
		l44.2-25.2c1.1-0.6,3-0.6,4.1,0l6.9,3.9C148.4,119.8,148.4,120.9,147.2,121.5z M147.2,94.9l-53.1,30.3c-0.6,0.3-1.3,0.5-2.1,0.5
		c-0.7,0-1.5-0.2-2.1-0.5L36.9,94.9c-1.1-0.6-1.1-1.7,0-2.4L90,62.3c1.1-0.6,3-0.6,4.1,0l30,17.1c1.1,0.6,1.1,1.7,0,2.4L80,106.9
		l12.1,6.9l44.2-25.2c1.1-0.6,3-0.6,4.1,0l6.9,3.9C148.4,93.2,148.4,94.3,147.2,94.9z"/>
</g>
</svg>
